/* XPM */
static char *result[] = {
/* columns rows colors chars-per-pixel */
"50 50 243 2 ",
"   c #040500",
".  c #191609",
"X  c #241F0F",
"o  c #322915",
"O  c #3D371F",
"+  c #432C1E",
"@  c #473B25",
"#  c #756209",
"$  c #75600A",
"%  c #786410",
"&  c #7C6514",
"*  c #7C6912",
"=  c #7F691A",
"-  c #504828",
";  c #554E35",
":  c #5F573B",
">  c #624A29",
",  c #6A572C",
"<  c #625F58",
"1  c #6F6542",
"2  c #885F1F",
"3  c #816F1B",
"4  c #846E1B",
"5  c #88731E",
"6  c #846F22",
"7  c #946926",
"8  c #887524",
"9  c #8E7725",
"0  c #8B7820",
"q  c #8A7828",
"w  c #8D792A",
"e  c #907C26",
"r  c #907F2E",
"t  c #806332",
"y  c #967234",
"u  c #9C7837",
"i  c #A0742A",
"p  c #A37B2F",
"a  c #877445",
"s  c #917B45",
"d  c #988026",
"f  c #9D8629",
"g  c #938135",
"h  c #958039",
"j  c #978738",
"k  c #A1822C",
"l  c #A48C28",
"z  c #A78E2D",
"x  c #AD9426",
"c  c #AA932C",
"v  c #AF972F",
"b  c #B6962F",
"n  c #B19828",
"m  c #B3992B",
"M  c #B49B2A",
"N  c #B49D2B",
"B  c #B79D2D",
"V  c #B79E2F",
"C  c #BA9E2B",
"Z  c #A98537",
"A  c #B08330",
"S  c #B88D31",
"D  c #B19032",
"F  c #BB9434",
"G  c #B39A30",
"H  c #B59C30",
"J  c #B79936",
"K  c #B89F30",
"L  c #BB9F31",
"P  c #B89F32",
"I  c #BB9C36",
"U  c #B29738",
"Y  c #BD963A",
"T  c #BF9C3F",
"R  c #B8A02D",
"E  c #B9A12E",
"W  c #B9A02F",
"Q  c #BCA12D",
"!  c #BBA42F",
"~  c #B9A031",
"^  c #B9A032",
"/  c #BAA232",
"(  c #BDA332",
")  c #BAA137",
"_  c #BDA336",
"`  c #BFA53E",
"'  c #C19A39",
"]  c #C69D3A",
"[  c #C99F3E",
"{  c #C0A738",
"}  c #CBA13B",
"|  c #CEA33C",
" . c #D4AB3F",
".. c #9B8646",
"X. c #9D8E42",
"o. c #9F8F47",
"O. c #B08E43",
"+. c #AB9042",
"@. c #A29249",
"#. c #A7934B",
"$. c #BA9946",
"%. c #B99E45",
"&. c #AE9755",
"*. c #AB9959",
"=. c #AF9F5C",
"-. c #BBA24A",
";. c #B5A96C",
":. c #B5AA6E",
">. c #ACA374",
",. c #B7AB70",
"<. c #BDB17A",
"1. c #C6A441",
"2. c #CAA542",
"3. c #C3A940",
"4. c #C5AE40",
"5. c #C3AB47",
"6. c #CFA840",
"7. c #CDA847",
"8. c #C0A248",
"9. c #C1A64E",
"0. c #C5A64C",
"q. c #CFAC49",
"w. c #CCAF4E",
"e. c #D3AE4C",
"r. c #C8B048",
"t. c #CCB348",
"y. c #CEB849",
"u. c #D4B14E",
"i. c #DBBE4F",
"p. c #C4AC50",
"a. c #C9A951",
"s. c #CFAE52",
"d. c #C4A758",
"f. c #CBB455",
"g. c #CFB851",
"h. c #CBB05A",
"j. c #D4B253",
"k. c #D0B356",
"l. c #DBB653",
"z. c #D3BA53",
"x. c #D6BE55",
"c. c #D3B55B",
"v. c #D2BD5A",
"b. c #D5BD59",
"n. c #D8B85B",
"m. c #DEBA59",
"M. c #C2AB60",
"N. c #CFB661",
"B. c #D2BB61",
"V. c #D6BB67",
"C. c #DEBC61",
"Z. c #D2BC68",
"A. c #DBBC68",
"S. c #C3B77F",
"D. c #CCBB7B",
"F. c #D6BF71",
"G. c #D4BD78",
"H. c #DDC34F",
"J. c #D7C159",
"K. c #D6C05F",
"L. c #DDC55D",
"P. c #DFC75F",
"I. c #E2C659",
"U. c #ECD35B",
"Y. c #F5DA5E",
"T. c #DBC360",
"R. c #DAC465",
"E. c #DDC465",
"W. c #DAC06E",
"Q. c #D8C56C",
"!. c #D8C071",
"~. c #DCC373",
"^. c #D8C374",
"/. c #DCC576",
"(. c #DCC57A",
"). c #E3C161",
"_. c #E0C964",
"`. c #E5CD64",
"'. c #E3C56F",
"]. c #E8C468",
"[. c #E0CA6A",
"{. c #E3CE6D",
"}. c #EDCC6A",
"|. c #F1C766",
" X c #E7D36E",
".X c #E9D06F",
"XX c #F3D769",
"oX c #E3C775",
"OX c #E4CD77",
"+X c #E8CD73",
"@X c #E5CC7B",
"#X c #E0C97E",
"$X c #E3CE7F",
"%X c #EACE7B",
"&X c #E7D275",
"*X c #EFD077",
"=X c #EAD474",
"-X c #EED973",
";X c #E7D37C",
":X c #EBD77C",
">X c #EFD97D",
",X c #F4DA78",
"<X c #F9E166",
"1X c #F7E173",
"2X c #C2B784",
"3X c #C6BC8F",
"4X c #C7BF92",
"5X c #D4C280",
"6X c #DCCD81",
"7X c #D9CD89",
"8X c #DFCD88",
"9X c #CBC199",
"0X c #E1CD82",
"qX c #E3CC83",
"wX c #E2CE85",
"eX c #E5CE86",
"rX c #E7D082",
"tX c #EAD485",
"yX c #E4D088",
"uX c #E2D08E",
"iX c #E8D18B",
"pX c #EBD58E",
"aX c #ECD88B",
"sX c #F1DC81",
"dX c #F1D788",
"fX c #F3DF8B",
"gX c #F3D98C",
"hX c #F8DD8E",
"jX c #EFD794",
"kX c #E7D897",
"lX c #F4DD92",
"zX c #F4E383",
"xX c #FAE985",
"cX c #F4E399",
"vX c #D0C8A2",
"bX c #D7D1AE",
"nX c #ECE0A0",
"mX c #F7E4A1",
"MX c #F8EAA7",
"NX c #F7ECB4",
"BX c #FDF5BD",
"VX c #FCF6CD",
"CX c None",
/* pixels */
"CXCXCXCXCXCXCXCXCXCXCXCXCXCXCXCXCXCXCXCXCXCXCXCXCXCXCXCXCXCXCXCXCXCXCXCXCXCXCXCXCXCXCXCXCXCXCXCXCXCX",
"CXCXCXCXCXCXCXCXCXCXCXCXCXCXCXCXCXCXCXCX<.#.h 6 = = q ..=.9XCXCXCXCXCXCXCXCXCXCXCXCXCXCXCXCXCXCXCXCX",
"CXCXCXCXCXCXCXCXCXCXCXCXCXCXCXCX3Xj % 4 5 +.l c v c l f e 5 & = =.CXCXCXCXCXCXCXCXCXCXCXCXCXCXCXCXCX",
"CXCXCXCXCXCXCXCXCXCXCXCXCXCX;.& 4 f H L g.y.&X3.K { =X{ K.N R.l 9 * r bXCXCXCXCXCXCXCXCXCXCXCXCXCXCX",
"CXCXCXCXCXCXCXCXCXCXCXCX3X% 5 c ^ t.r.K.z.r.z.i.m _.` [.z.E.b. X{ _ f = r CXCXCXCXCXCXCXCXCXCXCXCXCX",
"CXCXCXCXCXCXCXCXCXCXCXr = v 4.R.>XJ.g.P.=Xv.` 4.V ) R.3..XL.{.T.t.N b.y.d % ;.CXCXCXCXCXCXCXCXCXCXCX",
"CXCXCXCXCXCXCXCXCXCX* e / W L _.x.b.g.` v B K P P K B V m G ` g.E P >X{.n v = j CXCXCXCXCXCXCXCXCXCX",
"CXCXCXCXCXCXCXCX4X% z ( K._ M y.{ G N V ^ ^ ^ ^ ~ P ^ ~ ^ ^ V H V r.5.=X;Xy.R 5 0 CXCXCXCXCXCXCXCXCX",
"CXCXCXCXCXCXCX4X% v M R.-Xx.H H P K ~ ^ K K K K ^ ~ K P K ~ ^ ~ K K P g._.{.K.Q 9 5 CXCXCXCXCXCXCXCX",
"CXCXCXCXCXCXCX% v _ >XK.P.{ V ^ K 3.[ b ^ ~ ^ ^ ^ ^ ^ ^ ^ ^ ~ ~ / ^ ! G ) =XzX[.! 9 e CXCXCXCXCXCXCX",
"CXCXCXCXCXCX* z R b.T._.x V L ~ K 3.C.A ^ ~ ~ ^ ^ ^ ^ ^ ^ ~ ~ ^ D y Z ( V v ,X4.B ! 4 #.CXCXCXCXCXCX",
"CXCXCXCXCXr e ( T.>X5.) P ~ ^ P R %.C.A b ^ ~ ^ ^ ^ ^ ^ P ~ ~ ` 8.Z u L / ~ n V ` R.H & vXCXCXCXCXCX",
"CXCXCXCXS.= ( { >XL.{ B K ~ P ^ W U m.A A W K K ~ ^ ~ W E L D 0.8.O.u G / ^ ^ P &X,Xr.z * CXCXCXCXCX",
"CXCXCXCX= c V K v { B L P ^ ~ ^ W I 7.S ] ' _ / H G v v G D p %.u y y D ~ K ~ N B.B.P.B 5 ;.CXCXCXCX",
"CXCXCX<.5 / x.G W V ^ ~ ~ ~ ^ ~ H 1.1.).l. . . . . . . .Y i O.t > > y D / ^ ~ ^ x  X;Xg.v % CXCXCXCX",
"CXCXCX* c ` {.x.M K ^ ^ ^ ^ R m ` j.).).m. .6.] e.u.q.} A 2 +.t > > u D / ^ ^ ~ V 4.R.E./ 5 :.CXCXCX",
"CXCX9X4 / K.5.b.t.B ^ ~ ^ m ` C.].C.*X'.l.| ' u.e.e.7.[ 2.7 $...@ t u G ~ ^ ^ ^ ~ m R.sXx.c = CXCXCX",
"CXCXX.f R P.J.G ) ~ P ~ N 0.}.].).+X%X+X .F 7.n.n.n.q.u.u.T Z + , $.Z P ~ ^ ^ ^ ^ K ) oXg.! = CXCXCX",
"CXCX& H r.&X+XB K P ~ ^ v *X).|.,XA.OXc.] U C.V.V.j.7.e.j.u.[ u ..T | I ^ ~ ^ ^ ^ K m :XsX( 9 :.CXCX",
"CXCX= Q `.v.` V ~ ~ ~ M c.*X*X=.; ;.n.s.D 0.V.W.n.7.7.e.u.j.l.e.] Z 7 } H ~ ^ ^ ^ ~ H z.g.r.l q CXCX",
"CX<.0 C B._.{ V ~ P ~ x *XVXfX>.  ..).n.0.C.'...a T u.e.j.j.c.n.q.i 7 | G ^ ^ ^ ^ K 3.p.{.g.G % CXCX",
"CX=.d L -XP.V L ~ P K b VXNX}.&.a |.].C.C.Y , >.<   h l.j.j.u.j.u.| 7 | J K ^ ^ ^ K ) v.{.E.L = CXCX",
"CXX.f ) E.z.H R P ~ M Q.VXMX).|.|.'.'.oXC.Y o nX. O k.n.uXyX0X#XeXq.} [ J E P ^ ^ ^ K V n M ( 4 CXCX",
"CXq z 4.[.5.B K K K M BXNXVXpX(.dX%X'.'.A.a.V.&.M.n.j.8X8X8X8XwXyXA.] 7.T K ^ ^ ^ ^ ~ K P H ! 5 CXCX",
"CXq c 3.[.r.H ) ) P N.BXBX>.    X ..wX$X'.oXh.n.z.^.yX8X8X8X8X0XwXW.' 7.1.H ~ ^ ^ ^ K /  XsXR 0 CXCX",
"CXq c 3._.g.H K K M (.NXBX; . X . X 7X5XoX'.8XuXuX8X8X8X8X8X8XwXqX0XF 2.e.x ~ B K K ~ n :Xc.! 5 CXCX",
"CXr l _ :XsXM P ) H 6XMXBX- . X o 1 8XD.5X'.8X6X8XnX8XkXuXkXiX0XnXnXF /.1.Z.m N._ K V 3.R._.R 5 CXCX",
"CX@.f P Z. XB ^ ^ B 8XNXnX: o X @ S.5X5XG.d.8X8X7X1X[.zX_.fXI.MXY.Y.1.1Xs.xX{ xXy.H ~ m T.v./ 4 CXCX",
"CX,.e E K.f._ ^ ) I 6XNXMX1 : 1 - <.D.G.a.h.wX8X8X>XL.XXH.1Xf.Y.U K.H.XX[.Y.P.1XJ K ^ N n H _ & CXCX",
"CXCX5 Q P.R.g.V ^ B B.BXcXS.@ O O 1 7X~.d...G.yXwXtXU.i.U.U.N.Y.D.lXi.`.U.i.U.U.c ~ M [.T.B v * CXCX",
"CXCX% _ H 3.H / ^ V 5.MXcXcX1 1 1 1 ; ; @ , M.qXwXrXY.5.1XH.G.`.1X<XJ q.<XJ <Xy.H ^ H z.K.{ d @.CXCX",
"CXCX3 z ( H m m V / n mXmXlXtXa s &.#.d.#.&.rX#XqXpXh.G.$XU pX#XJ D J F Y 1.7.v ^ M 4.&Xv.W 5 CXCXCX",
"CXCXCX0 Q R.>XsXv.B N B.mXaXdXOXV.V.Z.~.@XrXqXqXqX0XjXjXjXiXyXV.F ' ' S ' ' q.V V b.x f.z.H % CXCXCX",
"CXCXCX& ! m =Xx n ^ V ) cXgXgXdX@X(././.#XqXqXeXpXpXjXjXiXqXqXT ' Y p A ' ' q._ G y.=X>XR f j CXCXCX",
"CXCXCXg d C &Xg.K.N V k.W.oXlXgXdXoX@XgXrXqXeXpXjXjXjXiXF.eX#XN.S i i ' 1.2.7.L {.f.J.n ( = CXCXCXCX",
"CXCXCXCX& _ P {.v.r.M E.@Xa.N.hXdXgXgXgXdXdXgXgXlXlXW.-.~.qXeXN.F A A 6.w.A.7.m b.z.&XE f 9 CXCXCXCX",
"CXCXCXCXj e Q y.fXx.x K.rXA.a.V.gXhXhXhXhXhXdX@XV.%.9.qXyXeXeXiXb p c.V.~.(.T w._ +X4.~ % CXCXCXCXCX",
"CXCXCXCXCX% v H K.:XL.oX@X%X'.h.-.9.N.h.9.%.%.%.%.Z./.F./.(.#X0.d.~.(.^.^./.s.5.{.R.C 9 o.CXCXCXCXCX",
"CXCXCXCXCXCX= _ N E./ @X@X@X@X%Xc.k.0.-.9.9.h.Z.~.^.!.!.!.!.F././.#X0XwX/.F.[.L.r.t.f * CXCXCXCXCXCX",
"CXCXCXCXCXCXX.5 { V H tX:X@X@X@XV.s.c.9.8.N.(.^.^.W.!.!.!.!.!.!.$X0X0XOX#XW.5..XN c % CXCXCXCXCXCXCX",
"CXCXCXCXCXCXCXr 9 ! g.>X;X;XdX@XB.8.a.8.h.~.!.!.!.!.!.!.!.F.^.0X0X0XwXtX{.0.Y I G % CXCXCXCXCXCXCXCX",
"CXCXCXCXCXCXCXCXq 6 >X~. XOXQ.sX~.%.-.p.~.^.!.!.!.!.!.F.^./.0X0XuXaX{.Q.>Xu.] F % 2XCXCXCXCXCXCXCXCX",
"CXCXCXCXCXCXCXCXCXr e @X'.v.K.:X/.[.N.!.!.~.!.F.F.F.^.#X0XyXiX0XQ..X#XT.I [ Z % 4XCXCXCXCXCXCXCXCXCX",
"CXCXCXCXCXCXCXCXCXCX*.* N.dXaXB.=X X!.(.>XF.F.tXqXyXtXtX;XOX{.0XwX-Xw.u.2.9 * CXCXCXCXCXCXCXCXCXCXCX",
"CXCXCXCXCXCXCXCXCXCXCXCX* f N.k.8.k.W.:X_.F.!.Q.-X{.>X{.R.-X-X$XrXf.s.k % X.CXCXCXCXCXCXCXCXCXCXCXCX",
"CXCXCXCXCXCXCXCXCXCXCXCXCXCX% d 0.z.k.p.Z.~.0XK.R.R.J.OX~.B.Z.tX(.#.= q bXCXCXCXCXCXCXCXCXCXCXCXCXCX",
"CXCXCXCXCXCXCXCXCXCXCXCXCXCXCXCX3 4 f M.wXaXpXpXaXtXpX@X(.M.#.q $ j CXCXCXCXCXCXCXCXCXCXCXCXCXCXCXCX",
"CXCXCXCXCXCXCXCXCXCXCXCXCXCXCXCXCXCXCXCX# 8 8 8 8 g w 3 $ * o.2XCXCXCXCXCXCXCXCXCXCXCXCXCXCXCXCXCXCX",
"CXCXCXCXCXCXCXCXCXCXCXCXCXCXCXCXCXCXCXCXCXCXCXCXCXCXCXCXCXCXCXCXCXCXCXCXCXCXCXCXCXCXCXCXCXCXCXCXCXCX",
"CXCXCXCXCXCXCXCXCXCXCXCXCXCXCXCXCXCXCXCXCXCXCXCXCXCXCXCXCXCXCXCXCXCXCXCXCXCXCXCXCXCXCXCXCXCXCXCXCXCX"
};
