/* XPM */
static char *result[] = {
/* columns rows colors chars-per-pixel */
"50 50 245 2 ",
"   c #030302",
".  c #090B0A",
"X  c #0F1008",
"o  c #1A1912",
"O  c #27140A",
"+  c #392608",
"@  c #323023",
"#  c #51361E",
"$  c #433B2A",
"%  c #4E432D",
"&  c #454134",
"*  c #534B3A",
"=  c #63482D",
"-  c #7A5328",
";  c #615840",
":  c #746640",
">  c #786D57",
",  c #884711",
"<  c #8A551B",
"1  c #965E1F",
"2  c #966528",
"3  c #8C613A",
"4  c #9D6C31",
"5  c #AF7527",
"6  c #B27D2D",
"7  c #937243",
"8  c #827251",
"9  c #937E50",
"0  c #AA7E42",
"q  c #B3842F",
"w  c #AF8339",
"e  c #B78737",
"r  c #BB8D39",
"t  c #C49238",
"y  c #C2943C",
"u  c #CD993E",
"i  c #8F835B",
"p  c #A6874A",
"a  c #B58A41",
"s  c #B38F4A",
"d  c #AD914C",
"f  c #B69242",
"g  c #BB9141",
"h  c #B99846",
"j  c #BD9847",
"k  c #BF9C4C",
"l  c #B29451",
"z  c #B59951",
"x  c #B39A56",
"c  c #BE9F53",
"v  c #BC975B",
"b  c #BC9E5D",
"n  c #BDA25A",
"m  c #86816C",
"M  c #958764",
"N  c #8F907F",
"B  c #9E9273",
"V  c #A69362",
"C  c #AF9A65",
"Z  c #A39469",
"A  c #B59F60",
"S  c #A89B74",
"D  c #B7A166",
"F  c #BCA261",
"G  c #BFA561",
"H  c #BCA667",
"J  c #B6A36C",
"K  c #BFA46A",
"L  c #BBA66C",
"P  c #BCA86B",
"I  c #BBA870",
"U  c #BFA970",
"Y  c #BDA975",
"T  c #B5A778",
"R  c #BFAF79",
"E  c #BAAB7F",
"W  c #C39742",
"Q  c #C19A46",
"!  c #CA9E45",
"~  c #C89A49",
"^  c #C19C57",
"/  c #CB9F51",
"(  c #C7A04A",
")  c #C3A04D",
"_  c #D0A247",
"`  c #C7A151",
"'  c #C4A056",
"]  c #C4A457",
"[  c #C9A654",
"{  c #C7A55D",
"}  c #C6A85F",
"|  c #CDA858",
" . c #CDAB5C",
".. c #D1A750",
"X. c #D8A852",
"o. c #D8AE59",
"O. c #DAB25F",
"+. c #C89F76",
"@. c #CBA764",
"#. c #C1A865",
"$. c #C6A966",
"%. c #CCAB62",
"&. c #C8AC66",
"*. c #CDAD66",
"=. c #CEA16C",
"-. c #C2AA69",
";. c #C5AB6A",
":. c #C0AA6C",
">. c #C0AC6F",
",. c #C5AD6C",
"<. c #C9AC6F",
"1. c #C9AF6E",
"2. c #D4AE60",
"3. c #D1AD65",
"4. c #D1A96A",
"5. c #CEB169",
"6. c #CFB46E",
"7. c #D9B666",
"8. c #D3B36B",
"9. c #D5B56E",
"0. c #DCBA6D",
"q. c #C2AC71",
"w. c #C4AF71",
"e. c #C1AD75",
"r. c #C3AD77",
"t. c #C7AF75",
"y. c #C9AF73",
"u. c #C4AE7A",
"i. c #C0AE7D",
"p. c #D0AD78",
"a. c #D3AB7F",
"s. c #CDB473",
"d. c #C9B376",
"f. c #CFB677",
"g. c #C5B27A",
"h. c #C2B17D",
"j. c #C4B17F",
"k. c #C5B47E",
"l. c #C9B47A",
"z. c #C9B47F",
"x. c #CFB77D",
"c. c #CCB77F",
"v. c #D4B875",
"b. c #DBBA75",
"n. c #D4BA7B",
"m. c #D1BB7E",
"M. c #DFBF7C",
"N. c #E1BA6E",
"B. c #E5BE73",
"V. c #E6C37D",
"C. c #AAA382",
"Z. c #B0A583",
"A. c #B0AC92",
"S. c #B5B296",
"D. c #BBB99B",
"F. c #C0B383",
"G. c #C4B481",
"H. c #C7B680",
"J. c #C5B684",
"K. c #C9B584",
"L. c #C7B987",
"P. c #CFBA81",
"I. c #CAB884",
"U. c #CEB886",
"Y. c #CEBC84",
"T. c #C3B68A",
"R. c #C9BB8B",
"E. c #CCBA89",
"W. c #CFBD89",
"Q. c #CABD8F",
"!. c #CDBC8E",
"~. c #D4B085",
"^. c #D3BC82",
"/. c #D5BF82",
"(. c #D0BB85",
"). c #D2BE85",
"_. c #D5BF87",
"`. c #D2B28B",
"'. c #D4BA88",
"]. c #D4BF8B",
"[. c #D1BC8D",
"{. c #D8BA8F",
"}. c #C8BB90",
"|. c #C8BE97",
" X c #DAC184",
".X c #DEC184",
"XX c #DEC587",
"oX c #D1C18B",
"OX c #D7C38B",
"+X c #D0C18E",
"@X c #DBC58E",
"#X c #CEC090",
"$X c #CEC298",
"%X c #D0C292",
"&X c #D5C490",
"*X c #D1C396",
"=X c #D6C596",
"-X c #D9C793",
";X c #DEC891",
":X c #DEC997",
">X c #D4C799",
",X c #D4C49F",
"<X c #DAC69B",
"1X c #D5C89D",
"2X c #DBCA9B",
"3X c #DECE9B",
"4X c #DDCE9D",
"5X c #DCCF9D",
"6X c #DDCD9E",
"7X c #E5C785",
"8X c #E9CA85",
"9X c #E2C68A",
"0X c #E3CB8F",
"qX c #EED08F",
"wX c #E1CE96",
"eX c #E3CD9A",
"rX c #E8D192",
"tX c #E5D49C",
"yX c #D0C7A3",
"uX c #D7C9A0",
"iX c #D7CDA6",
"pX c #D9CDA2",
"aX c #DACFA5",
"sX c #DCCEA6",
"dX c #D8CDA8",
"fX c #D9CDA8",
"gX c #DFD1A0",
"hX c #DDD1A4",
"jX c #DDD1A5",
"kX c #C9C8B0",
"lX c #CECBB0",
"zX c #E3D5A4",
"xX c #E6D8A7",
"cX c #EDDBA1",
"vX c #E2D4A8",
"bX c #E1D6A9",
"nX c #E0D5AD",
"mX c #E6DAAC",
"MX c #ECDFA9",
"NX c #E0D6B0",
"BX c #E3DDB4",
"VX c #E8DEB0",
"CX c #E9E4B3",
"ZX c #EEEAC1",
"AX c None",
/* pixels */
"AXAXAXAXAXAXAXAXAXAXAXAXAXAXAXAXAXAXAXAXAXAXAXAXAXAXAXAXAXAXAXAXAXAXAXAXAXAXAXAXAXAXAXAXAXAXAXAXAXAX",
"AXAXAXAXAXAXAXAXAXAXAXAXAXAXAXAXAXAXAXAX*XAXAXAXAXAXAXAXAXAXAXAXAXAXAXAXAXAXAXAXAXAXAXAXAXAXAXAXAXAX",
"AXAXAXAXAXAXAXAXAXAXAXAXAXAXAXAXAXAXAXAXs.+XAXAXAXAXAXAXAXAXAXaXG l AXAXAXAXAXAXAXAXAXAXAXAXAXAXAXAX",
"AXAXAXAXAXAXAXAXAXAXAXAXAXAXAXAXAXAXAXAX@.g AXAXAXAXAXAXAXAXAXn l < <XAXAXAXAXAXAXAXAXAXAXAXAXAXAXAX",
"AXAXAXAXAXAXAXAXAXAXAXAXAXAXAXAXAXAXAX4X/ 5 ' AXAXAXAXAXAXAX^ p p 2 K AXAXAXAXAXAXAXAXAXAXAXAXAXAXAX",
"AXAXAXAXAXAXAXAXAXAXAXAXAXAXAXAXAXAXAXP.y X._ _ 8. X_.OX0Xk 4 0 3 4 v AXAXAXAXAXAXAXAXAXAXAXAXAXAXAX",
"AXAXAXAXAXAXAXAXAXAXAXAXAXAXAXAXAXAXAXb.0.2.! u u X.X.u 5 1 0 - # 4 b AXAXAXAXAXAXAXAXAXAXAXAXAXAXAX",
"AXAXAXAXAXAXAXAXAXAXAXAXAXAXAXAXAX-X.X.XXX%.r t Q ' ] ( W < a = # w c.AXAXAXAXAXAXAXAXAXAXAXAXAXAXAX",
"AXAXAXAXAXAXAXAXAXAXAXAXAXAXAXAX5X0Xb.7X0X .e c F G ^ ` [ ~ - O 7 w hXAXAXAXAXAXAXAXAXAXAXAXAXAXAXAX",
"AXAXAXAXAXAXAXAXAXAXAXAXAXAXAXAX;X7X.XY._.g a 6.(.q.s ) [  .~ 2 a 2 3XAXAXAXAXAXAXAXAXAXAXAXAXAXAXAX",
"AXAXAXAXAXAXAXAXAXAXAXAXAXAXAXAXMXS o i %.j ^ %XY.b...f ' { 7.X.6 1 v.AXAXAXAXAXAXAXAXAXAXAXAXAXAXAX",
"AXAXAXAXAXAXAXAXAXAXAXAXAXAXAXAXZXB X d B.8.*.y.> $ p ( ' %.%.8.! , ~ AXAXAXAXAXAXAXAXAXAXAXAXAXAXAX",
"AXAXAXAXAXAXAXAXAXAXAXAXAXAXAXAXwXK <.B.M.M.Q + m . o ' @.%.[ } ..6 t AXAXAXAXAXAXAXAXAXAXAXAXAXAXAX",
"AXAXAXAXAXAXAXAXAXAXAXAXAXAXAXAXtXqX8X.X.Xb./ 9 ; * E /.-XY.'.c.} u y 2XAXAXAXAXAXAXAXAXAXAXAXAXAXAX",
"AXAXAXAXAXAXAXAXAXAXAXAXAXAXAXAXD.m M T.;Xn.5.6.,.*.*.%XjXR.R.+Xm.| ! /.AXAXAXAXAXAXAXAXAXAXAXAXAXAX",
"AXAXAXAXAXAXAXAXAXAXAXAXAXAXAXAX  . . & BXwXv.^.@X).J.$XpXjX1X*X(.8...*.AXAXAXAXAXAXAXAXAXAXAXAXAXAX",
"AXAXAXAXAXAXAXAXAXAXAXAXAXAXAXkX@ o   & lX|.x.#XyXdXdX$X*X%X%XI.z.c ) | jXAXAXAXAXAXAXAXAXAXAXAXAXAX",
"AXAXAXAXAXAXAXAXAXAXAXAXAXAXAXA.& o @ N S.}.t.*X|.|.,X1X*XI.r.e.;.f k ` OXAXAXAXAXAXAXAXAXAXAXAXAXAX",
"AXAXAXAXAXAXAXAXAXAXAXAXAXAXAXZ.* & * m S I <.i.T.L.j.F.G.e.K.K.H f j j n.AXAXAXAXAXAXAXAXAXAXAXAXAX",
"AXAXAXAXAXAXAXAXAXAXAXAXAXAXAXvX$ o o % T V : 9 j.e.i.E.u.#X*XE.;.j j k 6.AXAXAXAXAXAXAXAXAXAXAXAXAX",
"AXAXAXAXAXAXAXAXAXAXAXAXAXAXbXgXE * * & @ % : Y u.u.!.J.E.E.K.d.c r r Q [ jXAXAXAXAXAXAXAXAXAXAXAXAX",
"AXAXAXAXAXAXAXAXAXAXAXAXAXAXzX2XOXC V J A F <.l.q.U r.J.R.H.y.' g W q a ( -XAXAXAXAXAXAXAXAXAXAXAXAX",
"AXAXAXAXAXAXAXAXAXAXAXAXAXAXzX:XoXOXm.d.q.U P D L e.G.Q.!.k.G h y q 6 g Q @XAXAXAXAXAXAXAXAXAXAXAXAX",
"AXAXAXAXAXAXAXAXAXAXAXAXAXAXwX XOXP.s.x.U U I K q.!.#XL.r.>.&.k e 5 e Q ] OXAXAXAXAXAXAXAXAXAXAXAXAX",
"AXAXAXAXAXAXAXAXAXAXAXAXAXzXwXb.f.m.d.1.-.#.#.H :.z.z.e.g.w.$.k q q [ } s.-XAXAXAXAXAXAXAXAXAXAXAXAX",
"AXAXAXAXAXAXAXAXAXAXAXAXAXgX:X X9.*.s.s.1.;.G G F x F q.q.:.G ' j { ;.c.c.2XAXAXAXAXAXAXAXAXAXAXAXAX",
"AXAXAXAXAXAXAXAXAXAXAXAXAXgXeX@X/.f.n z c d d l l A h.g.d.t.<.A d.c.E.W.^.2XAXAXAXAXAXAXAXAXAXAXAXAX",
"AXAXAXAXAXAXAXAXAXAXAXAXAX6XxX2XoXx.1.n z z x D j.E.R i.l.z.l.W.&X+X#X!.).OXAXAXAXAXAXAXAXAXAXAXAXAX",
"AXAXAXAXAXAXAXAXAXAXAXAXAX2XmXjX&XP.:.#.G x H Y j.J.L.L.Y K.+X=X!.*X>X=X^.).AXAXAXAXAXAXAXAXAXAXAXAX",
"AXAXAXAXAXAXAXAXAXAXAXAXAX.XrX2XOXU.l.F b G r.G.L.R e.H.E.R h.%X*X%X*XW.f.m.AXAXAXAXAXAXAXAXAXAXAXAX",
"AXAXAXAXAXAXAXAXAXAXAXAX3XqXwX@X).(.t.F ,.x U H.Y h.H.i.#X>X!.uX1X*X=X).5.x.AXAXAXAXAXAXAXAXAXAXAXAX",
"AXAXAXAXAXAXAXAXAXAXAXAXwXcXgX@Xm.d.d.-.K q.r.Y K.K.K.oXR.R.}.Q.%X&XP.s.} x.AXAXAXAXAXAXAXAXAXAXAXAX",
"AXAXAXAXAXAXAXAXAXAXAXgXMXVXgX@Xf.6.s.-.q.u.u.h.J.k.j.J j.%X1X*X[.m.%.{ &.(.AXAXAXAXAXAXAXAXAXAXAXAX",
"AXAXAXAXAXAXAXAXAXAXAXbXmXCXgXOXx.&.} G w.e.h.J.J.R.R.#Xj.H.+XoXm.s.v.] $.W.AXAXAXAXAXAXAXAXAXAXAXAX",
"AXAXAXAXAXAXAXAXAXAXAXBXtXmX3X_.f.1.} } ;.>.g.I.G.I.z.E.W.H.x.P.(.[.&Xy.y.+XAXAXAXAXAXAXAXAXAXAXAXAX",
"AXAXAXAXAXAXAXAXAXAXNXmX9XeX-X^.f.1.$.} G -.H e.g.g.k.q.r.l.l.W.#X,X>XP.l.*XAXAXAXAXAXAXAXAXAXAXAXAX",
"AXAXAXAXAXAXAXAXAXAXBXeXB.b.n.n.s.y.-.G ,.H G H L :.q.U w.t.U.E.R.>X1X[.c.1XAXAXAXAXAXAXAXAXAXAXAXAX",
"AXAXAXAXAXAXAXAXAXAXNX9Xb.2.[ ] &.q.:.:.P e.H P >.:.>.>.w.:.z.I.#X$XuXoXW.dXAXAXAXAXAXAXAXAXAXAXAXAX",
"AXAXAXAXAXAXAXAXAXAXgXV.V.V.0.[ k x P P H L L I Y L U U w.:.l.z.+X#X*X].%XdXAXAXAXAXAXAXAXAXAXAXAXAX",
"AXAXAXAXAXAXAXAX*XAX-XV.8XqX7XN.0.0.6.-.J u.J P  .....2.&.F $.l.K.'.{.=XuXNXAXAXAXAXAXAXAXAXAXAXAXAX",
"AXAXAXAXAXAXAXaXjXAX_.7XqXqXrXM.7.O.o.O.] J v.B.N.O.O.W ! | 3.4.a.~.{.<XdXAXAXAXAXAXAXAXAXAXAXAXAXAX",
"AXAXAXAXAXAXAXsXBXT.^.qXrX7XrX7Xb. .O.o.b.MXcXrXV.N. .[ ` [ %.@.=.a.`.,XdXAXAXAXAXAXAXAXAXAXAXAXAXAX",
"AXAXAXAXAXAXAXAXgXzXrXrXrXrX0X7X8.9.M.VXZXCXtXxXwX%.9.%.k *.n./.p.+.`.,XdXAXAXAXAXAXAXAXAXAXAXAXAXAX",
"AXAXAXAXAXAXAXAXnXmXwXeXwX0X0X0X0X.XzXZXBXpX:X>X_.x.f.[ ' *.d.Y.].U.[.,XAXAXAXAXAXAXAXAXAXAXAXAXAXAX",
"AXAXAXAXAXAXAXAXAXnXbX3XgX2X>X;Xf.XXgXbXE.pXJ M !.g.,.) c 1.l.(.].&X>XfXAXAXAXAXAXAXAXAXAXAXAXAXAXAX",
"AXAXAXAXAXAXAXAXAXAXAXNXmXmXbXgXR  XG.T V B F.i B I z z x.-.Y.+X#X=X1XAXAXAXAXAXAXAXAXAXAXAXAXAXAXAX",
"AXAXAXAXAXAXAXAXAXAXAXAXAXAXAXnXbX%XE Z i ; B 8 Z pXpXC g.g.P.%X>X1XAXAXAXAXAXAXAXAXAXAXAXAXAXAXAXAX",
"AXAXAXAXAXAXAXAXAXAXAXAXAXAXAXAXAXAXAX|.T S M S yX}.NXi.E J.Q.$XuXiXAXAXAXAXAXAXAXAXAXAXAXAXAXAXAXAX",
"AXAXAXAXAXAXAXAXAXAXAXAXAXAXAXAXAXAXAXAXAXm S C.Z.*X$XAXAXAXAXAXAXAXAXAXAXAXAXAXAXAXAXAXAXAXAXAXAXAX",
"AXAXAXAXAXAXAXAXAXAXAXAXAXAXAXAXAXAXAXAXAXAXAXAXAXAXAXAXAXAXAXAXAXAXAXAXAXAXAXAXAXAXAXAXAXAXAXAXAXAX"
};
