/* XPM */
static char *result[] = {
/* columns rows colors chars-per-pixel */
"50 50 90 1 ",
"  c #060200",
". c #0B0503",
"X c #0E0906",
"o c #0C0609",
"O c #0E0A0A",
"+ c #100705",
"@ c #110906",
"# c #110709",
"$ c #120C0B",
"% c #190E0C",
"& c #15100E",
"* c #1B120D",
"= c #070011",
"- c #0B0512",
"; c #0D0B13",
": c #0E071B",
"> c #0D0A1C",
", c #130D13",
"< c #1A0F13",
"1 c #130D1A",
"2 c #0F1112",
"3 c #0D131A",
"4 c #141114",
"5 c #1A1313",
"6 c #14121B",
"7 c #1A141C",
"8 c #15191D",
"9 c #1B191B",
"0 c #21120C",
"q c #211514",
"w c #241A15",
"e c #22151A",
"r c #221B1A",
"t c #2B1A19",
"y c #0C0622",
"u c #0E0820",
"i c #110524",
"p c #140E22",
"a c #180D24",
"s c #141222",
"d c #1A1523",
"f c #171821",
"g c #1A1924",
"h c #15122A",
"j c #1C1B2E",
"k c #0D0F39",
"l c #160F33",
"z c #161630",
"x c #1E1F34",
"c c #181638",
"v c #231B24",
"b c #241C2B",
"n c #301927",
"m c #331828",
"M c #211C36",
"N c #211E3D",
"B c #272221",
"V c #372626",
"C c #34232A",
"Z c #352230",
"A c #3A2837",
"S c #35273C",
"D c #1A1740",
"F c #131A4F",
"G c #1D1B49",
"H c #101651",
"J c #181953",
"K c #201D42",
"L c #1E2041",
"P c #282043",
"I c #2D2649",
"U c #222251",
"Y c #26275F",
"T c #2B2A5D",
"R c #312B5D",
"E c #160E74",
"W c #17246D",
"Q c #1F2968",
"! c #2C2663",
"~ c #262A66",
"^ c #282871",
"/ c #2D327B",
"( c #3B3C70",
") c #35337A",
"_ c #905E52",
"` c #251E97",
"' c #414892",
"] c #3B50C2",
"[ c #4F50D4",
"{ c #5D65DB",
/* pixels */
".O.o$,.5o.@ooX$oXX ..X &&.. X GL 3o XX6   .   O   ",
".X,O.6.o#o#$O.oXO@..X XX.X  ..   o.O.. .4 5.     .",
"$....Oo..OOXoo$$ X.X4.X...O V#.     4 ooOO.  O  O ",
"O,.o, _<.,7-$oo$oXXX.... .O.$.  O  O.. o  .. O    ",
">$.$o.m666d1$o$$XX@X;oXX.X.. ..   oX. O     .     ",
"u.;.49o.$#,.#X$.XOXX&.....O.X  =]-.   6   X       ",
"-X@oXo.o@o4&@@OXXX@$X$... O..X$ Jo..oos..  .X..   ",
"I.o.X.oo>,$@$@@@XX...@..4...O  . .   ...   .2.2   ",
"a@4*,o,.^-1o$$$X. ...&..2XX X..  . .OD  X .       ",
"X5#$P,,,>zo$*&o..o ..&@oX& .& o&.   .c ; .      X ",
"o$56Z$$.soo$XXXXX......$o.$46o55..s      ..       ",
"#*.. .o..d,.XXO$XX.. .+0,.X.@6 .5 -      .2 LOo .2",
"q.$7,o$4;;4+.@oX$X.......X..*... o    .. O . .. XO",
".$$.7oX.o@X$*.@XX$$&*o9...#+XX..;2    ..O. ..3 OX ",
"+do$$..o&5X&$X@@$X&$$.$.X$6@$X.. ...2     ... .  O",
"o.$ooXOX@.$XOXx#+$$o.5..X@$XXXX... .O .  O....  X ",
"4oX..o.X...*.$,#$X@$@%.X.g,#*X..XX X.  .Xo. O  .. ",
"OXoo.4#X$&@X##7$$%@@XXXXo4,,*o@+@X..X X ....... ;.",
". 4.&...X&@$$$@o@@@&@XOX)o#XX@O&@o... ..; X   ..' ",
".C.XOO.$X.XX6.+$$@$$XX@$@,X$oo.$XX@X&   Q.XXO...  ",
"4$  $.oX X.&X4.4$@48....&.4X$o+..X..;$ .   5o X . ",
".oXO..$q$.X&@o$#$&O$$@$X..X4.81YX..X.. .. ~;  ..2 ",
"O.X.X.5.#@X.@S.w@.$X$4@$X....$o-.O8XX.@o. h;X. ..o",
"OX. $oo$,..@$5$$@@$#$@,$ O..X#@.X..X..$o5X X....XO",
"X$.X+#$#.$$X@$$X$$$$&@*@$O...2.XOX.X&2Og... .. X*8",
"o@7.v,1o.$X5@$4X&7:7$,$.K3.......X.X5.oo ......4..",
"#o..$o!.@.X#$559@`{i+r&$@@$..XXX.XX  O2X.O.X  .& .",
"$.<6,o++#.@@&$#$@E[y$$&*X@.$... w@X&o.o    XX8.   ",
",+,o..o.$.@$.&b,@+o$5w#$$X... .. .OX4XXO.X.OXXX..X",
"n$.$,6,d.,$@*#$#@o##57@$XX@@.4 2XX.X j&..X .X   o4",
"O$#*,,o65oX.$+6$+go+7j$4$$@.8,X .XXX.O@X.X.X. O4  ",
"$o,.5%$oO4@$$$55,$&.@d#X$$$$. &X..5&XX@OXOX2X..o4.",
"$o7.@46#.#.$$1,5*X$v.o@..@.. .X&... .OX..$oX@@.OX.",
"#..4+@<##$&$@)p.X&#5$@@9$XX&..X...oX.O. .XoXsoo...",
"@$q#$4o#X$.5.o7##@XOo@o7$.XXXXX.$. X&7. .oX4:/...O",
"$*.o@@$@O&$$.%<$@@XX@##.@..OXX XO... 3O.X@.X .2.. ",
"$%@#@$@X$X.&$+#,&$ .&5e$XX$.X.X...... .XOX ...X.$ ",
"+,+.%@#*w@&@,.@@@@&X..#$&X5@@9@.X..X .XO.  4@.O...",
"+@4@@+.5.@$$$$to&.X$$ 468f#X@@X.....  OXXO 3 .  oX",
"$$@.+$+$&*$*$.o<$.@O&O*xx#GG&$..2X.XOOX.O .XOX...,",
"%@.@$@@bA5#r$#X$$.$$5o5o61RU@4..@XX X.X.....2  X. ",
"*@@%+..#4+@#$$..@o5@#$5&;j%#$@@oXXX..X. ... O..O..",
"X$.@*#7$@@@+$4r$.@<6$5,$#d.<$@o$O6rX.XoX.X. .2.O..",
"@$%@@+#OX+.v$@$@+@.,-$oOO8$$$+o,h.w@;OoXO .XX4  ..",
"$%05e55+*+$@$.@@#6l..$+$,o,,@@+,  ..$XoX.. 43X  ..",
"$@X!#$o+++@$.n$%$:RdN,++4v4$+.$#o.orXXB.O. .   HW ",
"$eX$#<w@@@X@$#$$.+o+.iN++71XohT.o..C&@*..$6$...kF ",
"er5$#7$@@@.o0.+7.o$@o+$@.oM.@1(.X65@O@....X    .  ",
"<7$$+$$++@.$X@@,@9.$$,$@@X.X$..#X.@.4O+.XXo O  .o.",
"%<$555%%$$+@$.X@+.@.$@&@X@o7X...o$@$@O.oX.X. .. 2 "
};
