/* XPM */
static char *result[] = {
/* columns rows colors chars-per-pixel */
"50 50 125 2 ",
"   c #0A0E0F",
".  c #070C11",
"X  c #0A0E14",
"o  c #0A0F18",
"O  c #0E1115",
"+  c #0C141C",
"@  c #0B1B1B",
"#  c #161716",
"$  c #1E1A16",
"%  c #15161B",
"&  c #171818",
"*  c #1E1E1E",
"=  c #201F1E",
"-  c #1C201F",
";  c #20201F",
":  c #0E1622",
">  c #0F1923",
",  c #101724",
"<  c #101925",
"1  c #111C2C",
"2  c #131E31",
"3  c #1D2122",
"4  c #13232C",
"5  c #1E2429",
"6  c #1B292F",
"7  c #0C3526",
"8  c #0D3728",
"9  c #0E3A2C",
"0  c #152433",
"q  c #192635",
"w  c #162934",
"e  c #1A2A34",
"r  c #16233A",
"t  c #172A3A",
"y  c #192C3C",
"u  c #103D33",
"i  c #1C303F",
"p  c #272938",
"a  c #0C4232",
"s  c #172340",
"d  c #182642",
"f  c #1A2D44",
"g  c #1B2D49",
"h  c #1C3245",
"j  c #1D354B",
"k  c #1F394D",
"l  c #1F2E56",
"z  c #1F3555",
"x  c #1F3952",
"c  c #212544",
"v  c #202C48",
"b  c #20374D",
"n  c #20394F",
"m  c #202D56",
"M  c #222E5B",
"N  c #282F5B",
"B  c #213A52",
"V  c #21365B",
"C  c #2B315A",
"Z  c #233B5A",
"A  c #243060",
"S  c #2E3564",
"D  c #253F63",
"F  c #2B3E64",
"G  c #243A69",
"H  c #2C3C69",
"J  c #263F70",
"K  c #283B70",
"L  c #2A3E78",
"P  c #23415E",
"I  c #254363",
"U  c #2D4367",
"Y  c #27446B",
"T  c #28456C",
"R  c #27496C",
"E  c #28486D",
"W  c #274472",
"Q  c #294674",
"!  c #274872",
"~  c #2A4975",
"^  c #2A4779",
"/  c #2C4B7C",
"(  c #304877",
")  c #354A7A",
"_  c #2E4E82",
"`  c #2E4F8A",
"'  c #314C85",
"]  c #3C4F81",
"[  c #324E8B",
"{  c #2F5086",
"}  c #2F5189",
"|  c #305187",
" . c #30528A",
".. c #334E93",
"X. c #325292",
"o. c #36539A",
"O. c #39549E",
"+. c #365B9B",
"@. c #3B589A",
"#. c #3A55A3",
"$. c #3B59A6",
"%. c #3C55AA",
"&. c #3C5AAB",
"*. c #425595",
"=. c #42569B",
"-. c #45599D",
";. c #4B589C",
":. c #4257A4",
">. c #4559A2",
",. c #4D5BA3",
"<. c #4157AA",
"1. c #4359AB",
"2. c #4B5CAD",
"3. c #515CA5",
"4. c #525EAB",
"5. c #445CB3",
"6. c #4D5DB0",
"7. c #515EB0",
"8. c #4B60AA",
"9. c #4E60B2",
"0. c #4760BA",
"q. c #5462B5",
"w. c #5664B9",
"e. c #5966B9",
"r. c #2D8487",
/* pixels */
"3 3 < ; ; - - - < ; ; < ; ; - - - - - - - - - ; - - - - - - - - 3 * 3 3 * 3 3 - - - ; - 3 - - 3 * 3 ",
"Z ) Q ) Q ) Q ) ^ ^ ) f e / ) ) ) ) Q ) ^ ) ) ) ) ) ) ) ^ ) ^ ( ) ) ) ) > z / ) ) ) ^ ^ ) ) ) ) d 9 ",
"B >.&.1.:.2.2.4.4.&.X.t w 2.4.<.<.<.%.<.%.<.1.1.1.1.1.1.%.1.%.%.&.<.2.w.< U q.1.<.1.<.%.1.1.1.q.V 8 ",
"Z { -.#.:.:.,.3.:.X.h 4 w 4.X.{ { } } _ { { { / ' { { { | '  .X.{ ^ _ 9.> T 6.X. . . . . . . .5.C 8 ",
"B _ / -.#.:.:.:._ I I t w >.{ ' / _ / ^ _ { / ^ _  .{ { / ~  ._ / / ~ >.< Z H V Z D V D V V Z F c 8 ",
"Z { / { =.:.:.` P I I t w #.{ { / / _ _  .| { { { _  . ._ /  .| | / / $.< h 4 4 1 4 4 4 e 0 4 4 , u ",
"k { { { _ >.X.Z B x n 0 w #.{ } | /  . .{  ./  .| / { ' ^ / /  ./ ^ E $.< I #.O.O.O.#...< ' O.$.m 8 ",
"Z { { {  .P e I I P B 4 w #.o. . . ._ |  .{ / / {  . ._ / / / / T I T #., Y ..~ / {  .^ @ / / o.m 8 ",
"B } / _ Y : X y Z j P t w O.{ _ | | | / / / ^ / / _ _ ^ / / / / _ / ~ $.> Y _ R d f g f < ~ ! ..N 8 ",
"B { _ Y + + + + f U P 0 w #./ / / _ | | / ^ ' / / ^ { / E _ I ~ E I _ %., Y ' U   y e e i ^ I  .M 8 ",
"x  .I O + + : + X t R f w #.| ' / P R ^  . .| / ~ _ | / ! P P P I I Y &., Y ' h  . .| | | / ) ` M 8 ",
"P Y + + : + : + : O f y w #.@.X. .{ R / {  .| ( E E { _ / I b Y | ~ / &., Y o.P k R b P P P Y o.M 9 ",
"> + X O O o + O X o o , : r q r t r 2 2 2 1 2 1 2 < 2 2 1 < < 1 2 < 2 0 + 1 r 1 > 1 < > < 1 @ s > @ ",
"B x n B x k j x B B B y < $ = = $ $ e x n n B B b B b B B B n B n B B Z + b B Z B B B n B B B B 2 u ",
">. . .{ } Y z { _  .} =.p = = < = * 6 O.q.2.6.6.%.5.%.6.6.2.2.1.2.6.7.w.< Y 7.6.6.2.1.%.6.6.9.q.m r.",
"I *.-.-.-.>.-.-.-.>.*.2 $ ; = = < $ 6 ;.%.[ X.[ X.X.X. .X.X.X.X...` o.q., U 2.X.X.X.X.X.X.X. .2.N a ",
"B o. ._ ' )  . .)  .T X < ; ; = ; = 5 ;.{ { { { / / { { { { { } { { / 8.> U =.{ { { / | | | { @.N 7 ",
"Z O.| ^ P ! / ^ {  .G X = ; ; = ; = 6 o.{ { {  . .{ { ~ Y ~ | { { / / $.> I .._  ._ ^ / | [ { o.M 8 ",
"Z O./ E I ~ / / / / H X * = ; = = = 6 ..{ { } } / / / _ ~ ^ / / / / / #., Y ' ! {  ._ / / / / +.M 8 ",
"Z o.T P ! / / I ~ _ ^ O < = < ; = = 6 o.{ { / / _  ._ / / /  ._ / / I #., Y ../ ^ {  .^ ! ! / O.M 8 ",
"Z [ P I P ~ I I I P W X * = = ; = = 6 o.'  ._ ^ / T I / ~ P ^ / / P I #., Y _ W / ~ { / / Y !  .M 8 ",
"Z ..I P I Y E P P R I X < * = = * = q ..| E Y / { _ ! B Y I B I I h R #., Y ' P / I / / { ~ P X.M 7 ",
"Z [ E ! P P / ! ! _ x o * = ; < = * 5 o.) I / / ~ _ ^ I h k k B k j T #., F ' k ! E I / ~ ~ ~  .M 8 ",
"Z o./ / ! I ^ ` / / W X = ; ; = * = q o. .~ R I E _ I R I I R P n I ! $., Y X.x k R B I Z P ~ | N 8 ",
"V O.{ ^ ~ I ^  ._ / / X & = $ = $ $ 5 z K z V g f h f g f h j j j g G J : f H z w j t w d h q L 2 9 ",
"Z o./ ^ / ~ /  ._ / W X e e e e e e 0 1 4 4 4 4 4 4 0 4 4 0 X % & $ & & % q 4 4 0 4 0 4 0 4 0 4 , u ",
"Z o.)  . ./ / _ _ / J . y O.,.,.,.>.o.,.O.,.,.,.:.>.,.,.,.&.X ; = = ; = - I 1.3.o.o.>.,.O.=.o.,.m 8 ",
"Z ..~ {  . .} / _ [ T . e 4.:.o.O.O.o.o.o.o.o.o.o.o.o.o.:.e.  ; < ; ; = $ ( C @ 2 1 1 1 1 1 1 v S 8 ",
"Z o./ / { _ { { / _ Y . w 3.} { { _ / { | { | { { | { ' _ q.X ; ; = = = $ W l W X.+.+.+.+.} _ Y A 8 ",
"Z O. ./ I E / / _  .Y . w %.{ | { } { /  .E ~ _ | | | / _ &.  ; ; ; = = - T m W T > < < > D  .I N 8 ",
"Z o./ ^ I Q / / / / Y X e $.{ { } { { { / { Y ^ / _ / / ~ &.  ; < ; = * $ ! l Q ~ 0 ! R Z ! ` D A 7 ",
"Z o.! P E _ / E ~ _ W X w #.{ / _ _ / _ / / / / { / / / ! &.  ; = * * = = E l W ^ 0 I _ Y T [ D A 8 ",
"Z ..P I I ~ E I I Y W . e #.` [ / / _ E Y _ Y Y { / / I E %.X ; = < ; ; $ E m Q Y 0 / { Y I _ Y A 7 ",
"Z [ P I P ! I I P I T . e #.| / ^ / / / W Y / I P ! I n E &.  ; = ; ; = = W M D W 2 n n h T I F A 8 ",
"Z X.T T I P / I Y _ x X y #.~ I Y / _ _ I B h B h P j n E &.  ; ; = = = $ ! l k / ! I I I I P Y A 8 ",
"Z ..~ / R P / { / / D X e $./ E T Y ~ _ E I Z P I B h P T 1.  ; ; = = = * W l y n n n n B n k F A 8 ",
"Z O./ / ! P /  ._ _ / . t X.o./ ^ P I I I I I I I I I Y [ O.  ; = * = = $ I o.) Q / / / ^ ^ ^ $.g 8 ",
"Z o.' / / E ^  ._ / W o < @ O + + + @ + + @ + + + @ @ + O + < 1 3 3 3 5 * O O # # X # X O # O O % u ",
"Z o./ ' ' / / { _ / Y . 6 Z ] ] ] ] / ] ) ] ] ] ] ] ] ] ) ] _ ) ] ] ] [ : * ; = < = = = = = $ 3 q u ",
"B o.^  .| | | ^ _ [ Y o $ 5  .5.<.%.%.<.%.%.&.1.1.<.<.%.$.&.%.%.%.<.5.w.< * < ; = = = = = = = P C 8 ",
"B o./ / | | } { / / W X < = * I } { { { { / { ~ / { { { { / [ X._ ! _ 9.< = ; ; = ; ; ; ; = B 0.C 8 ",
"Z O.} / T ! { / /  .G o = = * 3 I ' / ^ { { / ^ | | | { / /  ._ / / ! :.1 = ; ; ; ; < = ; B ! @.N 8 ",
"Z O.{ ^ P R / / / ' Y o = ; * $ - E  .| { | { { { { | | _ /  .| ` / _ #.< = = = ; ; * $ k I ~ o.M 7 ",
"Z o.^ I T / / / / _ Y . * ; < ; = 5 R  .{  ./  .| / { | / ^ _  ./ Q T %.< = = = ; = $ V _ / I @.M 8 ",
"Z X.I I I / ~ P U ^ / X < = = ; = = ; U  .| / / {  . ./ / / / / T Y Y $.> = * ; $ * B / _  ./ o.M 7 ",
"Z [ P P P ~ I I I P W X = = < ; ; ; = < ~ _ / / / _ / / / / / / _ / ^ $.1 = < = - b E I ! _ Y +.M 8 ",
"Z X.I I I I / P P / Z X < = ; ; ; ; 3 $ 5 I  .^ / ~  ./ E / I ! R I { $.< * * $ B Y n j T / _ o.m 8 ",
"Z o./ _ R I / | { { Z O = = = = ; < ; * * 3 T _ ! { | / ! P P Z Y I Y $.1 ; $ k / P b E ! P ! +.V 8 ",
"B l g g f t g g f g f o < = ; = = ; ; ; * = 1 U ! T _ { _ P k R { ~ / &.< ; Y  ./  ./  .| ~ ' &.m 9 ",
": o o + + + o + % o o : < = = = ; ; ; ; ; * = 5 h % 1 1 1 > > 1 1 < 1 0 + h 1 1 1 2 4 1 4 1 1 2 < @ "
};
