/* XPM */
static char *result[] = {
/* columns rows colors chars-per-pixel */
"50 50 69 1 ",
"  c #1C0600",
". c #170805",
"X c #1D0902",
"o c #1A0E0B",
"O c #1B110C",
"+ c #1B1716",
"@ c #1D1916",
"# c #1F1F1E",
"$ c #210700",
"% c #230A01",
"& c #2B0C02",
"* c #200F09",
"= c #340E03",
"- c #390E02",
"; c #241004",
": c #2C1305",
"> c #26160A",
", c #2A1609",
"< c #2E1909",
"1 c #351406",
"2 c #3B1305",
"3 c #331806",
"4 c #331708",
"5 c #3B1609",
"6 c #341909",
"7 c #3B1C0A",
"8 c #231B15",
"9 c #291D15",
"0 c #211D19",
"q c #3F200C",
"w c #1D1F20",
"e c #1E2122",
"r c #451406",
"t c #491507",
"y c #451907",
"u c #431608",
"i c #491708",
"p c #441B0B",
"a c #4C1B0C",
"s c #511D0C",
"d c #4E1F10",
"f c #521F10",
"g c #41220D",
"h c #4E230D",
"j c #54220E",
"k c #5B240E",
"l c #5E290F",
"z c #4F2010",
"x c #522111",
"c c #5C2511",
"v c #552C12",
"b c #5C2B13",
"n c #4F3514",
"m c #513615",
"M c #5C3115",
"N c #553916",
"B c #5B3917",
"V c #61270F",
"C c #61290F",
"Z c #612711",
"A c #632A12",
"S c #682E13",
"D c #663215",
"F c #6A3416",
"G c #6A3618",
"H c #6C3819",
"J c #713517",
"K c #713919",
"L c #674618",
/* pixels */
"mgScDcGZHAZc%4DFFFAcDAGGFDFFGZFVSGFHA.hFFFFZZGFFF&",
"m5bSZDDHHDx7X6KcckkcckcjjcjcxcklkcsZF.vGjxckccxcH:",
"m7ibDAcDDc24%6FdaazaiaiirdddaiixairiF vZxxxxxxxsG:",
"N1trbAFDcu15%4cxtuuruzxuisddxuizarrrlX:X$$%X$%%%%$",
"m5azabSxu:16%4cdxuaxxzfsxiaxhiuszauaC 7677776<777%",
"m1axdab51214X1Axjaaxzxxrzxixiuuiar2iZXhVjkcZu%kkS&",
"N7siaa%&2333%4Zcxxxixxaruaxarttrrr1iZXhytttx=;atk&",
"m5atu&  :146%6Zuuxaxutrruittruttrttal.hu=$$$%;z1k&",
"N5au&  X :25%4Zatrraaiistttxirr1r1-ac hy=47777h-s&",
"m5a& %% $ :2%6Zzar12idxar2aaur111rriZ.ju<papipprj=",
"m1= $   $$X:%6ccjst2tiatrr2ttr33ut2jcXaV44u<412pZ&",
"m   X % X  X X$% $$% $ $   X     $ $X XX      $ % ",
"N777764467745eeeeee<pqqgqpg7gggpgggg7 6qggg7pqgg7&",
"Bcadiarrtafjj#w#0ee>JHDFSVFSFFDSSDDKD.vKFDSSSDDGH&",
"m2ZDSDDDDDGx ###wwe>KcsfjxxxjxjjjxxcG vSffxcxjsxH:",
"mpcduruxitx= ww#www>GdzjarazdxafzfaaD vxdfdrxzxdD&",
"mpfdu=rrras= w##0ew,Zdfxfxiau2isaitic hthxarifafc&",
"mafr2urrtrt= ###wew>Aaaxdaiririutrtrc hyraxttiuac&",
"mpi22uir2ri5$w#ew0w>AaiirasrttixtruucXhirtfat-riZ&",
"mpi22-r2222- w##eew>Zdftrr1rt22rru-uZ hurrrdtt1rk&",
"mpi522u22-u= w##e0w>Aarriit51r11r1:-lXhu-urrii2-k&",
"npir22-t2ui&$w##eee>Au-rrdtu3<333<3rlXhu1r1utrrrk&",
"nparr22aiir= we00ew>Si212ri215123312l jr<321r32rj&",
"npctru2ifii5 wwwwww>farr1=1---1--=rsa 7l=:-<::=7x%",
"mpkartrtxua1 98@@88*XXXX%XXXXXXXOOOOo;%XX%XX%XXXX%",
"npsuaarrsit= 4jvvvjhvhMvvxvvMvpOee#ee0ybMvjMMbjbb%",
"Npsuxxaaraf= 4HSCSAAACSZSZSACHbOe###w0v6%%%%%&&%j:",
"npsuixaxari- 4HfhaaazhddzdazhklOe##e#@j%kxcxcaiph&",
"mpcfr2raiix= 6Adfxaiaaiaazjaualoe####@j&iu5551iuh&",
"mixtr1turii= 6czxdxxaai2ujittijoe####@j&c=%&&&zgh&",
"mpsr12utrti= 6Zisxiutrtrtutruukoe####0j%x5=5i5zph&",
"mps2-rrr1ri5.6czirusaruuijurrrjoe#e#e@j&x==ri1uph&",
"mpi522t12-5- 4cfiutt2rur2rr21rjO#####@j&s=:523u2j&",
"m7s11-2r11u= 4Zp2raar135132:1rjo#####0h:2r211121h&",
"mpuur1-ttrr& 6Z5ut2zrr3:41341rjoe##e#@j&12222221h&",
"misrtr2astt- 6Zs225ru22r2513rajOe####@h256655666v&",
"npkiuu1ixia5 *511=&&&&&&&&&&&u=Oeeeee@=y==--=--=2%",
"L7strtuixii= &;&X;%;;;%;;&;;;&%>>>>>>O@@+++@+@+@+>",
"Npjusduuait= 0gKGHSlGSGGHGGGGAFlDGFFZ.ee##www###9%",
"mpsrjzxsrdf= e@pkkcccckcjkkkkkkbccjSH.ee#######8D&",
"mpfiiaafara= #w07axaiaaiuadzaaixatrtFXee###w#w8uH:",
"mpcfu2ritax= eww02iuujfrizxxauidarrrCoe##wwww8rrA&",
"mpftr-rrrrt= w#we@pjsdxaxiaxxiifjaraC.e##www822uZ&",
"mpiu=uirrrt- w###e@pxxxraxisauriar5iVoe#w0w9rai2c&",
"mpa1-2i522i5 w####e@ijaruaxxirrrur1iC.###e82rthtZ&",
"mpi-22i-2-2-$w##e##e8rtrtiiurtttttuaC.e#e85r2ri2c&",
"mps1222i22r&$w######e@2jtutxurr1r12aCoee021:1rrfZ&",
"maati22iiit= ####e###e8aurairr11-r2pC.e@2r11r21ic&",
"m3=&&&&=1&=& w0wweee##w92r2ttt44ui2sZ.#xtisuatrsZ&",
"m    $      $#w#e00e##ww9&$%%%$%%%$&%%:&X&&%%%%&&X"
};
