/* XPM */
static char *result[] = {
/* columns rows colors chars-per-pixel */
"50 50 232 2 ",
"   c black",
".  c #040201",
"X  c #040404",
"o  c #090300",
"O  c #080505",
"+  c #080605",
"@  c #0C0704",
"#  c #050509",
"$  c #0C0A08",
"%  c #0A0A0D",
"&  c #0F0D0E",
"*  c #100802",
"=  c #140A04",
"-  c #180E07",
";  c #100C0A",
":  c #130E0D",
">  c #1D0F08",
",  c #15100D",
"<  c #1A100D",
"1  c #1C120F",
"2  c #0E0D13",
"3  c #05071C",
"4  c #141010",
"5  c #171111",
"6  c #151213",
"7  c #171416",
"8  c #181111",
"9  c #1A1412",
"0  c #1C1614",
"q  c #1D1719",
"w  c #1D1818",
"e  c #1D1A1B",
"r  c #1F1D1F",
"t  c #20100A",
"y  c #27150D",
"u  c #2F190F",
"i  c #211612",
"p  c #241614",
"a  c #2A1A15",
"s  c #221A1A",
"d  c #201D1F",
"f  c #371E14",
"g  c #311E19",
"h  c #301B1E",
"j  c #2E211D",
"k  c #352019",
"l  c #3D251E",
"z  c #070920",
"x  c #070921",
"c  c #070A23",
"v  c #080A20",
"b  c #080A21",
"n  c #080A22",
"m  c #080927",
"M  c #080A26",
"N  c #080A27",
"B  c #090A27",
"V  c #0F0E26",
"C  c #05082B",
"Z  c #090B29",
"A  c #0A0B2A",
"S  c #090A2E",
"D  c #090B2F",
"F  c #0A0D2F",
"G  c #171321",
"H  c #14122A",
"J  c #1E1928",
"K  c #171839",
"L  c #261722",
"P  c #231D25",
"I  c #241F2D",
"U  c #2C1E2D",
"Y  c #252125",
"T  c #2A222D",
"R  c #392727",
"E  c #312B2E",
"W  c #3C3632",
"Q  c #3F3036",
"!  c #49271F",
"~  c #472E2C",
"^  c #4C2F28",
"/  c #4D332B",
"(  c #593028",
")  c #502A31",
"_  c #583631",
"`  c #553E36",
"'  c #56343E",
"]  c #6B382E",
"[  c #613939",
"{  c #624238",
"}  c #704239",
"|  c #7A433A",
" . c #774A3F",
".. c #1C1E40",
"X. c #171F49",
"o. c #2B2646",
"O. c #232B54",
"+. c #2E2E54",
"@. c #353152",
"#. c #273160",
"$. c #2B3966",
"%. c #473E42",
"&. c #4B3D40",
"*. c #70374B",
"=. c #3E466F",
"-. c #534343",
";. c #524146",
":. c #504349",
">. c #564B4F",
",. c #58494A",
"<. c #52425A",
"1. c #6E4946",
"2. c #644B49",
"3. c #7B4645",
"4. c #794053",
"5. c #665D5B",
"6. c #745958",
"7. c #70605D",
"8. c #42507A",
"9. c #4D557B",
"0. c #675E63",
"q. c #66596B",
"w. c #796670",
"e. c #766B70",
"r. c #903A3B",
"t. c #804334",
"y. c #8A4C3C",
"u. c #93503D",
"i. c #874E46",
"p. c #9B4449",
"a. c #81544D",
"s. c #8A5749",
"d. c #955A48",
"f. c #9E5B48",
"g. c #9A5F4F",
"h. c #8A4F50",
"j. c #964C54",
"k. c #845751",
"l. c #8F5D50",
"z. c #855E5C",
"x. c #8E5A5E",
"c. c #A5585F",
"v. c #896157",
"b. c #8E665E",
"n. c #956257",
"m. c #996554",
"M. c #946B5F",
"N. c #9A6B5F",
"B. c #A9634A",
"V. c #B76B4C",
"C. c #A16352",
"Z. c #A36B5B",
"A. c #AB6B58",
"S. c #B66758",
"D. c #B26F58",
"F. c #BA725C",
"G. c #B35561",
"H. c #946566",
"J. c #9F6561",
"K. c #88756B",
"L. c #8B796F",
"P. c #887770",
"I. c #AB6662",
"U. c #A06F63",
"Y. c #B8626C",
"T. c #BA6D69",
"R. c #A87060",
"E. c #A3736B",
"W. c #AD756F",
"Q. c #B17462",
"!. c #B57969",
"~. c #B47E6D",
"^. c #BB7570",
"/. c #B47D73",
"(. c #BE7C74",
"). c #C27A5D",
"_. c #D5796D",
"`. c #C87D74",
"'. c #CF7779",
"]. c #96857B",
"[. c #B68178",
"{. c #BB8A79",
"}. c #C3806A",
"|. c #D28968",
" X c #CA8370",
".X c #CE8A73",
"XX c #C6837F",
"oX c #C28979",
"OX c #C78E7D",
"+X c #CE8B7B",
"@X c #D88C79",
"#X c #D89376",
"$X c #E2967D",
"%X c #566084",
"&X c #5B688C",
"*X c #837B81",
"=X c #8D8284",
"-X c #9A8D8D",
";X c #B48485",
":X c #BD8680",
">X c #BC8F94",
",X c #CD8F84",
"<X c #D48E83",
"1X c #D98C8C",
"2X c #C09088",
"3X c #C9948B",
"4X c #D49781",
"5X c #DA9180",
"6X c #DB9A89",
"7X c #D49892",
"8X c #D69E98",
"9X c #E09D80",
"0X c #E89F86",
"qX c #E1978F",
"wX c #E99992",
"eX c #DEA092",
"rX c #DEA19A",
"tX c #E3A28B",
"yX c #EFA48D",
"uX c #E6A594",
"iX c #EFA19B",
"pX c #E7AD9F",
"aX c #E8AB9B",
"sX c #EFAC98",
"dX c #E7A2A2",
"fX c #EEACA2",
"gX c #E9AFAA",
"hX c #EBB0A3",
"jX c #F1B3A3",
"kX c #F6BAAA",
"lX c #F6BFB2",
"zX c None",
/* pixels */
"zXzXzXzXzXzXzXzXzXzXzXzXzXzXzXzXzXzXzXzXzXzXzXzXzXzXzXzXzXzXzXzXzXzXzXzXzXzXzXzXzXzXzXzXzXzXzXzXzXzX",
"zXzXzXzXzXzXzXzXzXzXzXzXzXzXzXzXzXzXzXzXzXzXzXzXzXzXzXzXzXzXzXzXzXzXzXzXzXzXzXzXzXzXzXzXzXzXzXzXzXzX",
"zXzXzXzXzXzXzXzXzXzXzXzXzXzXzXzXzXzXzXzXzXzXzXzXzXzXzXzXzXzXzXzXzXzXzXzXzXzXzXzXzXzXzXzXzXzXzXzXzXzX",
"zXzXzXzXzXzXzXzXzXzXzXzXzXzXzXzXzXzXzXzXzXzX~ f l u u f zXzXzXzXzXzXzXzXzXzXzXzXzXzXzXzXzXzXzXzXzXzX",
"zXzXzXzXzXzXzXzXzXzXzXzXzXzXzXzXzXzXzXzX-.y u u y k k l k l u t zXzXzXzXzXzXzXzXzXzXzXzXzXzXzXzXzXzX",
"zXzXzXzXzXzXzXzXzXzXzXzXzXzXzXzXzXzXzXl y a a g l k a y - > = o o * zXzXzXzXzXzXzXzXzXzXzXzXzXzXzXzX",
"zXzXzXzXzXzXzXzXzXzXzXzXzXzXzXzXzX-.= > y k y y k y t t * o o o @ o ; zXzXzXzXzXzXzXzXzXzXzXzXzXzXzX",
"zXzXzXzXzXzXzXzXzXzXzXzX0.zXzXzX` y - a g g a > > < @ * * o o : @ o . H zXzXzXzXzXzXzXzXzXzXzXzXzXzX",
"zXzXzXzXzXzXzXzXzXzXzXzX*Xw.zX&.k i < 1 < - = p g a p h a l l k t   o L zXzXzXzXzXzXzXzXzXzXzXzXzXzX",
"zXzXzXzXzXzX>.I zXzXzX=Xe.zXzXR l = * * g [ v./.OX/.[.[./.!.).B.y.j 9 t a zXzXzXzXzXzXzXzXzXzXzXzXzX",
"zXzXzXzXzXK.5.zXzXzX0.zXzXT b j a s ; a R..X#X9X0X0X$X0X0X$X|.).B.t.R - : zXzXzXzXzXzXzXzXzXzXzXzXzX",
"zXzXzXzXL.].zXzXzX:.zXzXG 3 3 - a j i M. X.X#X$X9X0XsXsXuX$X#X|.V.u.( * q zXzXzXzXzXzXzXzXzXzXzXzXzX",
"zXzXzXzXK.P.zX>.zXzXJ v 3 v v < p q ` {. X|.9X0X0XyXyXsXsX$X$X|.F.f.t.- 2 zXzXzXzXzXzXzXzXzXzXzXzXzX",
"zXzXzXzX7.,.zXzXU G 3 v v v c a , i { [..X#XtXjXkXkXsXsXhXuX5X.XD.B.u.f 2 zXzXzXzXzXzXzXzXzXzXzXzXzX",
"zXzX:.;.%.zXI G 3 3 v c v v B j O 1 / U..X9XtXpXkXlXlXjXhXpX6X XF.A.f.( # zXzXzXzXzXzXzXzXzXzXzXzXzX",
"zX:.-.Q Q P 3 3 v v c c v c A w * p ^ N.4XtXuXpXhXlXkXjXaXhXuX@X}.D.f.} 2 zXzXzXzXzXzXzXzXzXzXzXzXzX",
"zXQ E P v 3 3 v c c c x v c A 7 * a ^ n.4XtXpXuXsXkXkXjXuXfXjX6X.XF.C.| L zXzXzXzXzXzXzXzXzXzXzXzXzX",
"zXP G x 3 b z b x x x x c N A A = t l E.,X6XaXaXjXlXlXlXpXgXgXeXeX!.f.} ~ zXzXzXzXzXzXzXzXzXzXzXzXzX",
"V 3 3 v b z z x v c v c B F D D , t N.+XOX,XaXjXjXkXlXgXgXrX8X3X{ ! ( ( ( zXzXzXzXzXzXzXzXzXzXzXzXzX",
"z v b z B b b c B B B B A F D C 5 g Z. XOXoX+X/.a.[ k.3X8X7XW.k.;XW.a.[ ] zXzXzXzXzXzXzXzXzXzXzXzXzX",
"n B z B b b b N B B B B A D C ' ] l n.+XOX/.J.2XgX8X:XJ.7XrX .a.7 -.!  .] zXzXzXzXzXzXzXzXzXzXzXzXzX",
"M v b b b x b N B B B Z Z D m ' c.~ l. X,X:X[.J.U %.3.i.7XkXd.E.>XW.3.f.| zXzXzXzXzXzXzXzXzXzXzXzXzX",
"M c m b x x N N A B F K ..K K o.<X{ a.}..X4X}.W.;X>XI.OX<XiXS.N.U.l.Q.D.y.zXzXzXzXzXzXzXzXzXzXzXzXzX",
"V B c x N B B B N Z K o.@.+.o.K `.n.1.D.).5XeXeX3X/.W.pX5XqX_.f.6X6X XS.t.zXzXzXzXzXzXzXzXzXzXzXzXzX",
"M N m Z B N Z Z A N K o.@.+.o...z.uXM.d.D.6X6X1XrXeXhXfX<X'.wXr..X5X@XS.t.zXzXzXzXzXzXzXzXzXzXzXzXzX",
"M B m B N A Z N Z N F ..O.+.+.O.<.yX/.d.A.<X5XwXfXfXiX6X+X'.iXp.g.}..XF.t.zXzXzXzXzXzXzXzXzXzXzXzXzX",
"M B m B Z N S A A N F X.$.=.=.=.=.[.OXZ.C. X5XwXfXgX,X^.$X`.dXh.| C.T.S.] zXzXzXzXzXzXzXzXzXzXzXzXzX",
"V b B B m Z S S D N F O.8.&X&X%X9.2XoXQ.g.(.+X5XqX<XI.XXh.4.h._ | i.i.i.! zXzXzXzXzXzXzXzXzXzXzXzXzX",
"M m N Z B F D F D S F O.8.%X%X9.=.w.:XR.C.A.!.XXXXJ.I.1X7X,Xh.h.y.3.1._ ! zXzXzXzXzXzXzXzXzXzXzXzXzX",
"m H Z Z A S S S D F F X.$.=.$.#.O.# _ R.A.A.C.J.E.3.(.1XdXrX<XT.i.( 1.l.! zXzXzXzXzXzXzXzXzXzXzXzXzX",
"i p O z B 9 8 J G d w J Y : G 8 @ @ _ m.Z.A.R.R.s.H.:X^.J.H.x.6.R ) M.l.l zXzXzXzXzXzXzXzXzXzXzXzXzX",
"1 6 4 i 1 $ i i i i i < < O 1 , $ $ / n.l.C.D.~.!.E.! h q.-X-X-.W 3.E. .zXzXzXzXzXzXzXzXzXzXzXzXzXzX",
"9 q , i ; 1 1 1 1 8 < , & & 0 $ : ; j n. .i.A.R.oX~.k.) 4.4.*.[ 2.h.U.( zXzXzXzXzXzXzXzXzXzXzXzXzXzX",
"9 6 6 5 $ 1 1 1 8 , , O X : w # 8 8 * N.a. .l.Z.W.!.,Xx.T.1XY.p.p.a.m.l zXzXzXzXzXzXzXzXzXzXzXzXzXzX",
"9 s 1 4 < 1 5 5 , : $ X + 9 7 + 4 8   v.b.a.k.R.m.~.oXY.Y.:XoX'.r.k.s.U zXzXzXzXzXzXzXzXzXzXzXzXzXzX",
"0 s e 9 4 4 4 4 : ; + + & & & , : 8 . ` E.b.v.N.Q.~.oX/.c.G.G.j._ N.} zXzXzXzXzXzXzXzXzXzXzXzXzXzXzX",
"7 s 8 : ; : 5 w 0 $ X $ ; ; ; @ , 0 $   {.z.z.b.~.R.OXOXJ.1.[ 1.l.~.l zXzXzXzXzXzXzXzXzXzXzXzXzXzXzX",
"w r 9 5 4 % 7 i :   $ ; : ; , . 8 9 : X j aXz.1.M.N.{.6XOX:X3X(.Q.M.. zXzXzXzXzXzXzXzXzXzXzXzXzXzXzX",
"e r 4 $ % 4 0 ,   @ ; : ; , $ + , 9 ; ,   ` uXN.' M.z.3XuXrXXX^.!.j   zXzXzXzXzXzXzXzXzXzXzXzXzXzXzX",
"d r % % 4 0 8   + : , : : 9 X $ 0 8 + e +   U.U.z.) 2.2.E./.W.H.R   + zXzXzXzXzXzXzXzXzXzXzXzXzXzXzX",
"q e # & 0 w X + , 8 : : 8 9   & 9 , @ E 2 X ` W.[ [ ) R L L 8     o # zXzXzXzXzXzXzXzXzXzXzXzXzXzXzX",
"P : $ 5 w $ + : 8 , : , 9 8   & 9 0 $   . 2 M.[.} b.H.x.1.p X #   o X zXzXzXzXzXzXzXzXzXzXzXzXzXzXzX",
"P & % s & $ : 8 9 , , 8 0 ;   4 0 :   j 2.2.1.{.i.[.3X:X/ # #   . + # o zXzXzXzXzXzXzXzXzXzXzXzXzXzX",
"r % 7 7 % 8 8 9 9 , : 9 0 + X 8 0 ;   & 7 *  .oXg.~.pX2.# + . @ + # X @ X zXzXzXzXzXzXzXzXzXzXzXzXzX",
"6 9 d : 8 9 0 0 9 : , 9 9 . + 8 d ; X   8 a.s.J.R.!.-.# X $ ; ; ; # o + + * zXzXzXzXzXzXzXzXzXzXzXzX",
"6 e e 0 8 0 9 9 9 , 8 0 ,   $ 8 e &   # # 2  .Q.A.n.  + . E @ $ $ # o X @ @ @ zXzXzXzXzXzXzXzXzXzXzX",
"4 Y e 0 0 0 0 0 9 , 9 0 :   $ 9 e $   # % % # 7 D..Xi Y : . . $ ; # @ + @ @ * @ zXzXzXzXzXzXzXzXzXzX",
"d Y d e e e e 0 9 8 9 0 $ X % e 8 $   # & % 2 # l { & Y , $ ; ; + . + + @ @ ; @ @ zXzXzXzXzXzXzXzXzX",
"Y Y Y d e e e 0 9 9 0 9 + $ & w w X X + % % 2 %   X W w   $ 4 ; + . + $ $ $ $ @ ; @ zXzXzXzXzXzXzXzX",
"Y Y Y d e w w 0 9 9 0 8 . $ & 0 8   X # % & 2 X X 7 Y +     . 0 % + + $ ; $ ; ; ; % o G zXzXzXzXzXzX"
};
