/* XPM */
static char *result[] = {
/* columns rows colors chars-per-pixel */
"50 50 253 2 ",
"   c #230600",
".  c #250900",
"X  c #270B00",
"o  c #260F06",
"O  c #290B00",
"+  c #2B0B00",
"@  c #2E0800",
"#  c #2E0C00",
"$  c #2E0F00",
"%  c #320B00",
"&  c #300E00",
"*  c #330E00",
"=  c #370C00",
"-  c #2C1000",
";  c #2D1206",
":  c #2C1309",
">  c #301000",
",  c #331000",
"<  c #321200",
"1  c #351000",
"2  c #361100",
"3  c #351300",
"4  c #371200",
"5  c #311603",
"6  c #361400",
"7  c #371400",
"8  c #381100",
"9  c #391100",
"0  c #391300",
"q  c #3B1200",
"w  c #3D1200",
"e  c #391400",
"r  c #391500",
"t  c #3B1400",
"y  c #3B1700",
"u  c #3C1400",
"i  c #3D1500",
"p  c #3E1500",
"a  c #3F1500",
"s  c #3D1700",
"d  c #351B05",
"f  c #351C05",
"g  c #3E1800",
"h  c #3F1800",
"j  c #3C1D01",
"k  c #3E1D04",
"l  c #381E08",
"z  c #3A1F08",
"x  c #2E1C12",
"c  c #3F2203",
"v  c #3C2007",
"b  c #3F2208",
"n  c #36231B",
"m  c #3B261D",
"M  c #411700",
"N  c #421700",
"B  c #4A1500",
"V  c #401A00",
"C  c #431A00",
"Z  c #461A00",
"A  c #421C00",
"S  c #451D00",
"D  c #471C00",
"F  c #461F03",
"G  c #411F04",
"H  c #4A1C00",
"J  c #481F01",
"K  c #501E00",
"L  c #432004",
"P  c #422307",
"I  c #462105",
"U  c #442205",
"Y  c #4A2101",
"T  c #4C2200",
"R  c #482204",
"E  c #482406",
"W  c #4E2606",
"Q  c #4E2807",
"!  c #4E2F06",
"~  c #422309",
"^  c #442509",
"/  c #472509",
"(  c #492409",
")  c #4A2608",
"_  c #4C2608",
"`  c #4B290A",
"'  c #4C2A09",
"]  c #4D290B",
"[  c #4E2C0A",
"{  c #522200",
"}  c #542400",
"|  c #552701",
" . c #572800",
".. c #562B07",
"X. c #5B2C00",
"o. c #5F2E00",
"O. c #582C07",
"+. c #502908",
"@. c #522B08",
"#. c #532B09",
"$. c #502A0B",
"%. c #512C0B",
"&. c #522E0B",
"*. c #552C08",
"=. c #572D09",
"-. c #552F0A",
";. c #542E0B",
":. c #552B0E",
">. c #522C0C",
",. c #542D0C",
"<. c #552E0C",
"1. c #572F0D",
"2. c #592E08",
"3. c #582F0A",
"4. c #5B2F0B",
"5. c #582E0C",
"6. c #513304",
"7. c #5E3202",
"8. c #5C3007",
"9. c #5F3307",
"0. c #56300B",
"q. c #57300B",
"w. c #58320B",
"e. c #5C300B",
"r. c #5F330B",
"t. c #593609",
"y. c #58300C",
"u. c #59300C",
"i. c #5B310C",
"p. c #5A300D",
"a. c #59320D",
"s. c #5A320C",
"d. c #5B320C",
"f. c #5B300E",
"g. c #5D320C",
"h. c #5C330C",
"j. c #5E330D",
"k. c #5D320E",
"l. c #5C340D",
"z. c #5E350C",
"x. c #5F340D",
"c. c #5F360C",
"v. c #5E3908",
"b. c #602F00",
"n. c #663900",
"m. c #623E06",
"M. c #60340B",
"N. c #62370B",
"B. c #61330C",
"V. c #60320F",
"C. c #62350D",
"Z. c #60360D",
"A. c #62370D",
"S. c #64360E",
"D. c #63390C",
"F. c #64380D",
"G. c #65380D",
"H. c #66390E",
"J. c #683B0D",
"K. c #6B3C0F",
"L. c #653610",
"P. c #413025",
"I. c #4B3725",
"U. c #45392F",
"Y. c #523925",
"T. c #5B3E25",
"R. c #5F4301",
"E. c #6D4A03",
"W. c #6B4E00",
"Q. c #6E400E",
"!. c #7E4E00",
"~. c #7F4E00",
"^. c #70420F",
"/. c #71430F",
"(. c #73440F",
"). c #7E4F09",
"_. c #715300",
"`. c #7B5A00",
"'. c #5B4028",
"]. c #5F4228",
"[. c #4B4037",
"{. c #514637",
"}. c #6C4622",
"|. c #6A4527",
" X c #614429",
".X c #66472C",
"XX c #6E4929",
"oX c #6F4C2A",
"OX c #6A4B2F",
"+X c #6E4B2C",
"@X c #704C2A",
"#X c #734E2B",
"$X c #76502D",
"%X c #7C5431",
"&X c #0E3256",
"*X c #09335D",
"=X c #033A73",
"-X c #023E7C",
";X c #103F70",
":X c #394958",
">X c #1A4C7D",
",X c #294966",
"<X c #554A40",
"1X c #4B5156",
"2X c #605045",
"3X c #645E58",
"4X c #6B665A",
"5X c #6B665F",
"6X c #72695B",
"7X c #5E6469",
"8X c #726B61",
"9X c #7F796F",
"0X c #787873",
"qX c #767B7C",
"wX c #804E00",
"eX c #805D00",
"rX c #895904",
"tX c #835408",
"yX c #8C5B08",
"uX c #925F08",
"iX c #876300",
"pX c #8B6500",
"aX c #8D6800",
"sX c #966D00",
"dX c #9B7100",
"fX c #A56F00",
"gX c #A27600",
"hX c #AA7504",
"jX c #AA7B00",
"kX c #B17600",
"lX c #B37B03",
"zX c #877F73",
"xX c #807B74",
"cX c #B78400",
"vX c #BD8200",
"bX c #B88500",
"nX c #BA8600",
"mX c #BD8900",
"MX c #C38D00",
"NX c #EDAC00",
"BX c #F2B100",
"VX c #9B8570",
"CX c #00458F",
"ZX c #667B8C",
"AX c #8C8880",
"SX c #959185",
"DX c #9B9689",
"FX c #A19A8C",
"GX c #A09C90",
"HX c #A5A093",
"JX c #A9A192",
"KX c #AAA497",
"LX c None",
/* pixels */
"LXLXLXLXLXLXLXLXLXLXLXLXLXLXLXLXLXLXLXLXLXLXLXLXLXLXLXLXLXLXLXLXLXLXLXLXLXLXLXLXLXLXLXLXLXLXLXLXLXLX",
"LXLXLXLXr y V V V V V A h h h h A S S J J S M M S J D S J J S S J T T S J Y J S J C = VXLXLXLXLXLXLX",
"LXLXLXLXY t.t.w.-.0.0.0.-.-.-.0.y.y.a.s.s.<.#.;.h.p.y.p.l.k.f.f.x.A.F.j.C.A.S.C.S.C.r.B LXLXLXLXLXLX",
"LXLXLXLXT s.s.s.u.u.a.y.*.*.*.=.p.p.s.d.d.=.#.*.i.p.y.u.h.f.p.k.Z.F.A.k.A.G.F.x.G.S.B.K LXLXLXLXLXLX",
"LXLXLXLX= >.,.,.,.,.,.#.W W W +.<.<.<.<.<.+.W +.<.1.1.1.1.1.1.1.l.c.l.y.l.Z.j.u.x.g.| X.LXLXLXLXLXLX",
"LXLXLXLXLX* E ` ] ` ` E E E ( ] ] ] ] ] ) E ) ] $.$.%.$.$.$.%.0.a.q.;.y.a.q.<.y.0.D LXLXLXLXLXLXLXLX",
"LXLXLXLXLXLXA Y %.%.$.$.+.+.Q $.%.>.>.%.Q _ >.>.0.0.>.,.,.1.l.c.l.s.l.l.d.d.l.u.H LXLXLXLXLXLXLXLXLX",
"LXLXLXLXLXLXLXOXT ;.<.,.>.>.*.#.$.>.,.,.<.#.W >.<.s.y.<.<.d.D.D.j.Z.Z.Z.Z.Z.r.7.LXLXLXLXLXLXLXLXLXLX",
"LXLXLXLXLXLXLXLX}.2.h.i.1.3.3.*.u.u.p.p.=...p.p.g.i.g.i.A.F.Z.H.H.Z.F.C.H.H.X.LXLXLXLXLXLXLXLXLXLXLX",
"LXLXLXLXLXLXLXLX@X9.H.A.S.j.j.M.i.f.f.u.*.=.f.j.f.p.k.F.F.Z.A.A.Z.C.A.H.F.H.b.LXLXLXLXLXLXLXLXLXLXLX",
"LXLXLXLXLXLXLXLXoX9.J.Q.h.Z.j.l.z.h.h.l.p.5.*.1.d.s.l.A.A.Z.D.c.Z.Z.D.A.A.H.o.LXLXLXLXLXLXLXLXLXLXLX",
"LXLXLXLXLXLXLXLX@X9.J.(.^ [ U U r j U ` k k U U k U E U L E ) I U [ &.s.x.H.o.LXLXLXLXLXLXLXLXLXLXLX",
"LXLXLXLXLXLXLXLXXX8.J.(.~ [ 7 , 2 & # L O & r * * 4 4 * y s r y 2 / 0.y.x.H.b.LXLXLXLXLXLXLXLXLXLXLX",
"LXLXLXLXLXLXLXLXXX=.F.(.~ %.e 4 y 7 2 ( & 1 e * * 7 r , g L t y 2 ( 0.y.Z.F.X.LXLXLXLXLXLXLXLXLXLXLX",
"LXLXLXLXLXLXLXLXXX*.C.^.v ] r , y 3 , I   . : : . @ , 1 g A y y 4 ( 0.y.k.k.X.LXLXLXLXLXLXLXLXLXLXLX",
"LXLXLXLXLXLXLXLX@X8.Z.J.E.-.7 * y , + - P.6XzXzX8X2Xx . 0 y y s 4 ( &.a.f.f. .LXLXLXLXLXLXLXLXLXLXLX",
"LXLXLXLXLXLXLXLX@X9.J.H.dXv.3 1 t # o 3XDXAX,X>X7XFXSX<X$ A y s 4 ( &.u.f.Z.b.LXLXLXLXLXLXLXLXLXLXLX",
"LXLXLXLXLXLXLXLX@X9.J.K.sXm.3 2 r : 5XHXzX;X=X-XCX1XJXHX[.+ g g 8 ) a.w.x.H.b.LXLXLXLXLXLXLXLXLXLXLX",
"LXLXLXLXLXLXLXLX|.8.J.K.sXm.3 7 # m DXHX0X=X=X*XCX:XJXHXAXn 8 g 8 ) s.s.x.H.b.LXLXLXLXLXLXLXLXLXLXLX",
"LXLXLXLXLXLXLXLX|...F.K.eXv.3 4 e o 4XGXFX:X-XCX&XxXKXSX[.& i g 8 ) a.l.Z.F.X.LXLXLXLXLXLXLXLXLXLXLX",
"LXLXLXLXLXLXLXLX|...Z.^.l [ 7 * r # > P.8XDXqXZXzX9X<Xx # h u h 0 I 0.q.i.k.X.LXLXLXLXLXLXLXLXLXLXLX",
"LXLXLXLXLXLXLXLX|...Z.^.b [ 7 * r 4 q g X m {.{.U.;   % 0 V 0 h e I w.*.=.k.X.LXLXLXLXLXLXLXLXLXLXLX",
"LXLXLXLXLXLXLXLXXX..Z./.v [ 3 & 4 * t R 8 & 1 * % 9 i 8 0 V e h t I w.*.=.k.X.LXLXLXLXLXLXLXLXLXLXLX",
"LXLXLXLXLXLXLXLXXX=.C.Q.v ' < # 7 + t R 8 9 0 i 8 0 i 8 0 V t V 0 _ 0.@.=.V.X.LXLXLXLXLXLXLXLXLXLXLX",
"LXLXLXLXLXLXLXLX|...x.K.v ` < + , + t R 8 8 0 i 9 0 i 9 t V e V 0 _ 1.#.5.k. .LXLXLXLXLXLXLXLXLXLXLX",
"LXLXLXLXLXLXLXLX|...x.K.b ' > + , + t R 8 9 0 i 9 0 p 9 t i % 9 * I q.<.p.k. .LXLXLXLXLXLXLXLXLXLXLX",
"LXLXLXLXLXLXLXLXXX..x.K.v ` < $ 1 $ r I * u , h 0 i r 4 2 n.!.~.wX9.1.@.=.k. .LXLXLXLXLXLXLXLXLXLXLX",
"LXLXLXLXLXLXLXLX@X9.A.Q.b [ / L ) ' Q 0.@.Q @.q.@.*.<.*.( lXNXNXBXrX1.@.*.k. .LXLXLXLXLXLXLXLXLXLXLX",
"LXLXLXLXLXLXLXLXXXO.F.Q.z ^ / G ` %.%.%.w._ ,.d.<.1.<.y.] hXNXbXNXtX$.#.u.C.o.LXLXLXLXLXLXLXLXLXLXLX",
"LXLXLXLXLXLXLXLX@XO.x.K.z ^ ^ G / $.%.] ;._ ,.s.Q <.1.<.( lXjXR.gXuX>.1.l.C. .LXLXLXLXLXLXLXLXLXLXLX",
"LXLXLXLXLXLXLXLX@X2.x.K.z / ^ G / &.&.] $._ >.1.#.l.1.<.$.rXW.nXsXt.5.,.5.k. .LXLXLXLXLXLXLXLXLXLXLX",
"LXLXLXLXLXLXLXLX@X2.x.K.l ^ P P / [ &.] %._ >.<.1.l.<.1.Q _.nXbXmXaX' y.s.k. .LXLXLXLXLXLXLXLXLXLXLX",
"LXLXLXLXLXLXLXLX#X2.x.K.l b c U / ` &.) %.R +.-.#.l.3.#.`.MXmXmXmXMXiX[ i.k. .LXLXLXLXLXLXLXLXLXLXLX",
"LXLXLXLXLXLXLXLXXX2.x.K.d b < > 3 6 y L < s s V C C C a j gXMXnXnXmXm.>.p.k. .LXLXLXLXLXLXLXLXLXLXLX",
"LXLXLXLXLXLXLXLX|.{ O.C.z ~ > O & , r G + t 0 i i a J q = 6.sXnXcXR.:.w.l.k.| LXLXLXLXLXLXLXLXLXLXLX",
"LXLXLXLXLXLXLXLX$X| 4.C.z ~ > O > , r G O , 9 p 9 C Y q * kXpXsXeXuX5.>.*...K LXLXLXLXLXLXLXLXLXLXLX",
"LXLXLXLXLXLXLXLXr.M.A.L.z b $ O > , 7 G . 3 e h t C J w 8 fXBXiXBXyX:.%.#.*.{ LXLXLXLXLXLXLXLXLXLXLX",
"LXLXLXLXLXLXLXLX2.g.x.L.f P $ O > , 7 G + 7 0 V u p Y w 9 rXvXvXvX).1.-.d.x.} LXLXLXLXLXLXLXLXLXLXLX",
"LXLXLXLXLXLXLXLX8.e.g.L.f ^ 5 O > & 6 L 1 4 0 s 9 C J q N 9 8 % @ 5.k.-.s.x.} LXLXLXLXLXLXLXLXLXLXLX",
"LXLXLXLXLXLXLXLX8.e.g.S.l b $ X > < 7 G 1 1 4 h 0 A J q w N D N w i.k.;.1.p.{ LXLXLXLXLXLXLXLXLXLXLX",
"LXLXLXLXLXLXLXLX8.e.g.S.l P - X & > 7 G # 2 4 g t h J q M N Z a w g.k.;.1.p.{ LXLXLXLXLXLXLXLXLXLXLX",
"LXLXLXLXLXLXLXLX8.e.g.S.l P - X & > 7 G , 1 4 h e i F q N N D Z w r.F.;.1.p.{ LXLXLXLXLXLXLXLXLXLXLX",
"LXLXLXLXLXLXLXLX8.4.g.S.l P - X $ > 6 G , , 2 g e i J q w N D Z w r.H.-.1.p.{ LXLXLXLXLXLXLXLXLXLXLX",
"LXLXLXLXLXLXLXLX8.r.C.L.v b - X X > 6 G , 4 4 s e i F q w N D Z w r.H.;.1.p.{ LXLXLXLXLXLXLXLXLXLXLX",
"LXLXLXLXLXLXLXLX8.N.F.V.eX! 5 X $ > 6 k & 1 2 g 0 i F 9 p C D Z w B.H.0.<.p.{ LXLXLXLXLXLXLXLXLXLXLX",
"LXLXLXLXLXLXLXLX8.N.G.L.`.6.5 . $ > 3 k O , 2 r 0 i F 9 u M Z Z w B.H.q.s.c.} LXLXLXLXLXLXLXLXLXLXLX",
"LXLXLXLXLXLXLXLX8.N.F.V.`.6.5 . $ > 3 j . & 1 2 4 u F 9 u a Z Z w 4.H.q.a.c. .LXLXLXLXLXLXLXLXLXLXLX",
"LXLXLXLXLXLXLXLX8.N.F.V.eX! -   X O & < X + # 1 2 t F 8 q a Z M w g.J.0.w.x.| LXLXLXLXLXLXLXLXLXLXLX",
"LXLXLXLXLXLXLXLX8.N.F.L.c v < O O $ < y # # & e e g S p a M T Z a O.H.&.w.z.} LXLXLXLXLXLXLXLXLXLXLX",
"LXLXLXLXLXLXLXLX2.N.F.S.I.Y.Y.Y.'.'. X].T.T.]..X X.X+XOX|.|.+X$X$X#X%Xa.w.z.} LXLXLXLXLXLXLXLXLXLXLX"
};
